<svg xmlns="http://www.w3.org/2000/svg" viewBox="0 0 363.15 110.23"><defs><style>.cls-1{font-size:60px;fill:#2900b9;font-family:ChopinScript, ChopinScript;}.cls-2{fill:none;stroke:#730010;stroke-miterlimit:10;stroke-width:3px;}</style></defs><title>Recurso 2</title><g id="Capa_2" data-name="Capa 2"><g id="Capa_1-2" data-name="Capa 1"><text class="cls-1" transform="matrix(0.99, -0.16, 0.16, 0.99, 102.89, 83.72)">Abanto</text><path class="cls-2" d="M362.22,70.47c-34.28-27.1-271,43-314,38C13.49,104.43-5.7,71.65,4,38.07A50.64,50.64,0,0,1,66.74,3.51,40.51,40.51,0,0,1,94.39,53.69,32.41,32.41,0,0,1,54.25,75.8,25.93,25.93,0,0,1,36.55,43.69,20.74,20.74,0,0,1,62.24,29.54,16.59,16.59,0,0,1,73.57,50.09a13.27,13.27,0,0,1-16.44,9.06A10.62,10.62,0,0,1,49.88,46"/></g></g></svg>